<?xml version="1.0" standalone="no"?>
<!DOCTYPE svg PUBLIC "-//W3C//DTD SVG 20010904//EN"
 "http://www.w3.org/TR/2001/REC-SVG-20010904/DTD/svg10.dtd">
<svg version="1.0" xmlns="http://www.w3.org/2000/svg"
 width="260.000000pt" height="260.000000pt" viewBox="0 0 260.000000 260.000000"
 preserveAspectRatio="xMidYMid meet">
<metadata>
Created by potrace 1.11, written by Peter Selinger 2001-2013
</metadata>
<g transform="translate(0.000000,260.000000) scale(0.100000,-0.100000)"
fill="#000000" stroke="none">
<path d="M1189 2416 c-2 -2 -26 -6 -54 -9 -76 -9 -103 -16 -195 -47 -174 -59
-343 -166 -454 -289 -17 -19 -39 -43 -48 -53 -10 -10 -18 -20 -18 -23 0 -4
-18 -28 -45 -59 -19 -22 -107 -187 -120 -226 -1 -3 -4 -12 -7 -20 -47 -126
-67 -254 -63 -410 3 -137 5 -152 30 -251 26 -98 98 -273 125 -299 3 -3 11 -17
19 -33 8 -15 18 -27 23 -27 4 0 8 -5 8 -11 0 -19 138 -169 196 -214 15 -11 35
-28 45 -38 11 -9 22 -17 25 -17 3 0 24 -13 47 -29 73 -50 234 -119 318 -137
136 -28 176 -32 294 -29 148 4 178 8 294 42 175 50 385 177 490 296 9 10 31
35 49 55 18 20 44 55 59 77 14 22 34 51 43 65 45 67 101 205 132 325 27 106
33 327 12 440 -43 231 -143 424 -304 585 -78 78 -147 140 -156 140 -2 0 -20
12 -41 26 -93 63 -293 141 -412 160 -44 7 -286 16 -292 10z"/>
</g>
</svg>
